<svg width="24" height="24" viewBox="0 0 24 24" fill="none" xmlns="http://www.w3.org/2000/svg">
<path d="M21.0006 11.9999C21.0006 11.6021 20.8426 11.2206 20.5613 10.9393C20.28 10.658 19.8985 10.4999 19.5006 10.4999L7.62063 10.4999L11.5606 6.55994C11.8256 6.27559 11.9698 5.8995 11.963 5.51089C11.9561 5.12229 11.7987 4.75152 11.5239 4.47669C11.2491 4.20187 10.8783 4.04444 10.4897 4.03759C10.1011 4.03073 9.72498 4.17498 9.44063 4.43994L2.94063 10.9399C2.65973 11.2212 2.50195 11.6024 2.50195 11.9999C2.50195 12.3974 2.65973 12.7787 2.94063 13.0599L9.44063 19.5599C9.57796 19.7073 9.74356 19.8255 9.92756 19.9075C10.1116 19.9895 10.3102 20.0336 10.5116 20.0371C10.713 20.0407 10.9131 20.0036 11.0998 19.9282C11.2866 19.8527 11.4563 19.7405 11.5987 19.598C11.7411 19.4556 11.8534 19.2859 11.9289 19.0991C12.0043 18.9124 12.0414 18.7123 12.0378 18.5109C12.0343 18.3095 11.9902 18.1109 11.9082 17.9269C11.8262 17.7429 11.708 17.5773 11.5606 17.4399L7.62063 13.4999H19.5006C20.3286 13.4999 21.0006 12.8279 21.0006 11.9999Z" fill="black"/>
</svg>
