<svg width="24" height="24" viewBox="0 0 24 24" fill="none" xmlns="http://www.w3.org/2000/svg">
<g clip-path="url(#clip0_942_1827)">
<path d="M17.6008 5.60005H19.2008M7.20078 0.800049H16.8008C18.4982 0.800049 20.126 1.47433 21.3263 2.67457C22.5265 3.8748 23.2008 5.50266 23.2008 7.20005V16.8C23.2008 18.4974 22.5265 20.1253 21.3263 21.3255C20.126 22.5258 18.4982 23.2 16.8008 23.2H7.20078C5.5034 23.2 3.87553 22.5258 2.6753 21.3255C1.47507 20.1253 0.800781 18.4974 0.800781 16.8V7.20005C0.800781 5.50266 1.47507 3.8748 2.6753 2.67457C3.87553 1.47433 5.5034 0.800049 7.20078 0.800049ZM12.0008 16.8C10.7277 16.8 9.50684 16.2943 8.60667 15.3942C7.70649 14.494 7.20078 13.2731 7.20078 12C7.20078 10.727 7.70649 9.50611 8.60667 8.60594C9.50684 7.70576 10.7277 7.20005 12.0008 7.20005C13.2738 7.20005 14.4947 7.70576 15.3949 8.60594C16.2951 9.50611 16.8008 10.727 16.8008 12C16.8008 13.2731 16.2951 14.494 15.3949 15.3942C14.4947 16.2943 13.2738 16.8 12.0008 16.8Z" stroke="#545151"/>
</g>
<defs>
<clipPath id="clip0_942_1827">
<rect width="24" height="24" fill="white"/>
</clipPath>
</defs>
</svg>
