<svg width="24" height="24" viewBox="0 0 24 24" fill="none" xmlns="http://www.w3.org/2000/svg">
<path d="M14.6364 8.96411C14.1279 8.96411 13.7514 9.09236 13.4566 9.25436C13.4094 9.08636 13.2541 8.96336 13.0711 9.00011H10.8331C10.6119 8.96336 10.4326 9.14261 10.5009 9.37511V17.6251C10.4326 17.8351 10.6119 18.0151 10.8331 18.0001H13.0711C13.2924 18.0151 13.4716 17.8351 13.4716 17.6139L13.4709 12.6279C13.4701 12.6256 13.4619 12.3871 13.6126 12.2229C13.7334 12.0924 13.9411 12.0256 14.2284 12.0256C14.7069 12.0256 14.9199 12.2214 14.9994 12.6594V17.6139C14.9206 17.8351 15.0999 18.0151 15.3211 18.0001H17.6799C17.9011 18.0151 18.0804 17.8351 18.0009 17.6139V12.4929C18.0796 9.88886 16.2249 8.96411 14.6364 8.96411ZM17.2786 17.2501H15.7216V12.6594C15.7216 11.7736 15.1494 11.2246 14.2291 11.2246C13.7086 11.2246 13.3036 11.3776 13.0246 11.6791C12.6369 12.0991 12.6669 12.6316 12.7501 12.7501V17.2501H11.2336V9.76511H12.6706V10.0171C12.67 10.0922 12.6906 10.1659 12.7301 10.2298C12.7695 10.2937 12.8261 10.3451 12.8935 10.3783C12.9609 10.4114 13.0362 10.4249 13.1109 10.4171C13.1855 10.4093 13.2565 10.3806 13.3156 10.3344L13.4206 10.2534C13.7244 10.0141 14.0386 9.76586 14.6371 9.76586C15.2566 9.76586 17.2794 9.96311 17.2794 12.4936L17.2786 17.2501ZM8.25011 5.22461C7.40861 5.22461 6.72461 5.90861 6.72461 6.75011C6.72461 7.59161 7.40861 8.27561 8.25011 8.27561C9.09161 8.27561 9.77561 7.59161 9.77561 6.75011C9.77561 5.90861 9.09161 5.22461 8.25011 5.22461ZM8.25011 7.47461C7.85111 7.47461 7.52561 7.14911 7.52561 6.75011C7.52561 6.35111 7.85111 6.02561 8.25011 6.02561C8.64911 6.02561 8.97461 6.35111 8.97461 6.75011C8.97461 7.14911 8.64911 7.47461 8.25011 7.47461ZM9.32111 8.96336H7.09511C6.87386 8.96336 6.69461 9.14261 6.75011 9.37511V17.6251C6.69461 17.8351 6.87386 18.0151 7.09511 18.0001H9.32111C9.54236 18.0151 9.72161 17.8351 9.72161 17.6139V9.36386C9.72161 9.25764 9.67941 9.15577 9.60431 9.08066C9.5292 9.00555 9.42733 8.96336 9.32111 8.96336ZM9.00011 17.2501H7.49561V9.76511H9.00011V17.2501Z" fill="#545151"/>
<path d="M12.0001 -0.0253906C5.36861 -0.0253906 -0.0253906 5.36861 -0.0253906 12.0001C-0.0253906 18.6316 5.36861 24.0256 12.0001 24.0256C18.6316 24.0256 24.0256 18.6316 24.0256 12.0001C24.0256 5.36861 18.6316 -0.0253906 12.0001 -0.0253906ZM12.0001 23.2246C5.81111 23.2246 0.775609 18.1891 0.775609 12.0001C0.775609 5.81111 5.81111 0.775609 12.0001 0.775609C18.1891 0.775609 23.2246 5.81111 23.2246 12.0001C23.2246 18.1891 18.1891 23.2246 12.0001 23.2246Z" fill="#545151"/>
</svg>
