<svg width="254" height="38" viewBox="0 0 254 38" fill="none" xmlns="http://www.w3.org/2000/svg">
<mask id="path-1-outside-1_434_1128" maskUnits="userSpaceOnUse" x="0" y="0.853638" width="36" height="37" fill="black">
<rect fill="white" y="0.853638" width="36" height="37"/>
<path d="M0 9.14632C0 4.5664 3.71276 0.853638 8.29268 0.853638H24.2927C28.8726 0.853638 32.5854 4.5664 32.5854 9.14632V26.8536C32.5854 31.4336 28.8726 35.1463 24.2927 35.1463H8.29268C3.71276 35.1463 0 31.4336 0 26.8536V9.14632Z"/>
</mask>
<path d="M0 9.14632C0 4.5664 3.71276 0.853638 8.29268 0.853638H24.2927C28.8726 0.853638 32.5854 4.5664 32.5854 9.14632V26.8536C32.5854 31.4336 28.8726 35.1463 24.2927 35.1463H8.29268C3.71276 35.1463 0 31.4336 0 26.8536V9.14632Z" fill="#FE5E55"/>
<path d="M0 0.853638H32.5854H0ZM35.0732 26.8536C35.0732 32.8075 30.2466 37.6341 24.2927 37.6341H10.7805C4.82659 37.6341 0 32.8075 0 26.8536C0 30.0596 3.71276 32.6585 8.29268 32.6585H24.2927C27.4986 32.6585 30.0976 30.0596 30.0976 26.8536H35.0732ZM0 35.1463V0.853638V35.1463ZM24.2927 0.853638C30.2466 0.853638 35.0732 5.68023 35.0732 11.6341V26.8536C35.0732 32.8075 30.2466 37.6341 24.2927 37.6341V32.6585C27.4986 32.6585 30.0976 30.0596 30.0976 26.8536V9.14632C30.0976 4.5664 27.4986 0.853638 24.2927 0.853638Z" fill="#F5FE64" mask="url(#path-1-outside-1_434_1128)"/>
<path d="M16.1645 27.2818C15.1992 27.2818 14.3311 27.1425 13.5601 26.8639C12.7956 26.5789 12.1445 26.1545 11.6068 25.5909C11.0691 25.0208 10.6577 24.3081 10.3726 23.4529C10.0876 22.5978 9.94503 21.5968 9.94503 20.4501V13.2588H14.2987V20.4695C14.2987 21.1109 14.3311 21.681 14.3959 22.1799C14.4607 22.6787 14.5708 23.1031 14.7263 23.4529C14.8818 23.7963 15.0891 24.0587 15.3482 24.2401C15.6074 24.4215 15.9313 24.5122 16.32 24.5122C16.7476 24.5122 17.091 24.4215 17.3501 24.2401C17.6158 24.0587 17.8198 23.7963 17.9624 23.4529C18.1114 23.1031 18.2118 22.6787 18.2636 22.1799C18.3155 21.681 18.3414 21.1109 18.3414 20.4695V13.2588H21.9759V20.4501C21.9759 21.6033 21.8625 22.6075 21.6358 23.4627C21.409 24.3178 21.0559 25.0305 20.5765 25.6006C20.1036 26.1643 19.501 26.5854 18.769 26.8639C18.0433 27.1425 17.1752 27.2818 16.1645 27.2818Z" fill="white"/>
<path d="M41.5811 10.8477H56.6279V13.5664H50.5811V27.5H47.6279V13.5664H41.5811V10.8477ZM64.8428 18.3828C63.9443 18.3828 62.9287 18.5977 61.7959 19.0273V27.5H58.9131V9.79297H61.7959V16.5195C63.2021 15.9805 64.5107 15.7109 65.7217 15.7109C66.3311 15.7109 66.8779 15.7812 67.3623 15.9219C67.8467 16.0547 68.2451 16.2227 68.5576 16.4258C68.8701 16.6289 69.1396 16.8906 69.3662 17.2109C69.5928 17.5234 69.7646 17.8242 69.8818 18.1133C69.999 18.3945 70.0889 18.7266 70.1514 19.1094C70.2217 19.4922 70.2607 19.8086 70.2686 20.0586C70.2842 20.3008 70.292 20.5859 70.292 20.9141V27.5H67.4326V20.7383C67.4326 19.168 66.5693 18.3828 64.8428 18.3828ZM80.6396 15.6992C81.3115 15.6992 81.9131 15.7734 82.4443 15.9219C82.9834 16.0625 83.4248 16.2461 83.7686 16.4727C84.1201 16.6914 84.4209 16.9805 84.6709 17.3398C84.9287 17.6914 85.124 18.0312 85.2568 18.3594C85.3896 18.6797 85.4912 19.0664 85.5615 19.5195C85.6396 19.9727 85.6865 20.3555 85.7021 20.668C85.7178 20.9805 85.7256 21.3516 85.7256 21.7812V23.0938H77.0186C77.1826 23.6719 77.6475 24.1758 78.4131 24.6055C79.1787 25.0273 80.1865 25.2383 81.4365 25.2383C82.3193 25.2383 83.2178 25.1055 84.1318 24.8398L84.6123 24.6992L85.1865 26.9258L84.7646 27.0664C83.46 27.5117 82.0693 27.7344 80.5928 27.7344C79.5615 27.7344 78.6475 27.6211 77.8506 27.3945C77.0537 27.168 76.4131 26.875 75.9287 26.5156C75.4521 26.1562 75.0576 25.7227 74.7451 25.2148C74.4404 24.707 74.2295 24.1992 74.1123 23.6914C73.9951 23.1836 73.9365 22.6406 73.9365 22.0625C73.9365 21.2031 74.0576 20.418 74.2998 19.707C74.5498 18.9883 74.8857 18.3867 75.3076 17.9023C75.7373 17.4102 76.2373 16.9961 76.8076 16.6602C77.3857 16.3242 77.9951 16.082 78.6357 15.9336C79.2764 15.7773 79.9443 15.6992 80.6396 15.6992ZM80.1592 18.3242C79.2607 18.3242 78.542 18.5508 78.0029 19.0039C77.4639 19.4492 77.1436 20.0078 77.042 20.6797H82.8896C82.8271 19.8359 82.5615 19.2344 82.0928 18.875C81.624 18.5078 80.9795 18.3242 80.1592 18.3242ZM104.675 10.6953C106.229 10.6953 107.765 10.9258 109.28 11.3867L109.761 11.5273L108.8 14.2461L108.354 14.1172C106.94 13.7266 105.651 13.5312 104.487 13.5312C103.339 13.5312 102.354 13.7188 101.534 14.0938C100.722 14.4688 100.315 14.9492 100.315 15.5352C100.315 15.918 100.495 16.2539 100.854 16.543C101.222 16.832 101.694 17.0781 102.272 17.2812C102.851 17.4766 103.487 17.6719 104.183 17.8672C104.886 18.0625 105.589 18.2891 106.292 18.5469C106.995 18.8047 107.636 19.1016 108.214 19.4375C108.792 19.7734 109.261 20.2227 109.62 20.7852C109.987 21.3398 110.171 21.9805 110.171 22.707C110.171 23.1758 110.089 23.6406 109.925 24.1016C109.769 24.5547 109.499 25.0039 109.116 25.4492C108.741 25.8945 108.272 26.2852 107.71 26.6211C107.155 26.9492 106.444 27.2188 105.577 27.4297C104.718 27.6328 103.753 27.7344 102.683 27.7344C101.612 27.7344 100.647 27.6367 99.7881 27.4414C98.9287 27.2383 98.0186 26.9492 97.0576 26.5742L96.624 26.4102L97.6201 23.5742L98.0771 23.75C100.054 24.4531 101.683 24.8047 102.964 24.8047C104.167 24.8047 105.14 24.6211 105.882 24.2539C106.632 23.8867 107.007 23.4023 107.007 22.8008C107.007 22.4648 106.894 22.1641 106.667 21.8984C106.44 21.6328 106.136 21.4102 105.753 21.2305C105.37 21.043 104.929 20.8711 104.429 20.7148C103.937 20.5586 103.417 20.4062 102.87 20.2578C102.323 20.1094 101.776 19.9492 101.229 19.7773C100.683 19.6055 100.159 19.3984 99.6592 19.1562C99.167 18.9141 98.7295 18.6406 98.3467 18.3359C97.9639 18.0312 97.6592 17.6523 97.4326 17.1992C97.2061 16.7383 97.0928 16.2266 97.0928 15.6641C97.0928 14.2578 97.7803 13.0781 99.1553 12.125C100.538 11.1719 102.378 10.6953 104.675 10.6953ZM121.515 27.2891C120.366 27.5859 119.405 27.7344 118.632 27.7344C117.89 27.7344 117.249 27.6602 116.71 27.5117C116.179 27.3633 115.761 27.1758 115.456 26.9492C115.151 26.7148 114.909 26.418 114.729 26.0586C114.558 25.6914 114.444 25.3359 114.39 24.9922C114.335 24.6484 114.308 24.2461 114.308 23.7852V18.3945H112.515V15.9219H114.308V12.6055H117.19V15.9219H121.444V18.3945H117.19V23.5859C117.19 23.7812 117.222 23.9688 117.284 24.1484C117.354 24.3281 117.464 24.5078 117.612 24.6875C117.761 24.8672 117.983 25.0117 118.28 25.1211C118.577 25.2227 118.929 25.2734 119.335 25.2734C119.546 25.2734 120.116 25.1953 121.046 25.0391L121.503 24.957L121.96 27.1719L121.515 27.2891ZM129.706 15.6992C130.55 15.6992 131.288 15.7773 131.921 15.9336C132.562 16.082 133.077 16.2812 133.468 16.5312C133.858 16.7812 134.175 17.0938 134.417 17.4688C134.659 17.8438 134.823 18.2266 134.909 18.6172C135.003 19 135.05 19.4297 135.05 19.9062V27.5H132.894L132.565 26.7383C131.526 27.4023 130.343 27.7344 129.015 27.7344C127.569 27.7344 126.397 27.3945 125.499 26.7148C124.601 26.0352 124.151 25.2305 124.151 24.3008C124.151 23.7227 124.296 23.2188 124.585 22.7891C124.882 22.3594 125.269 22.0156 125.745 21.7578C126.222 21.5 126.819 21.2891 127.538 21.125C128.257 20.9609 128.976 20.8477 129.694 20.7852C130.421 20.7227 131.241 20.6875 132.155 20.6797V20.2812C132.155 19.9844 132.128 19.7383 132.073 19.543C132.026 19.3477 131.917 19.1406 131.745 18.9219C131.573 18.7031 131.284 18.5391 130.878 18.4297C130.479 18.3125 129.968 18.2539 129.343 18.2539C128.468 18.2539 127.308 18.4258 125.862 18.7695L125.394 18.8984L124.796 16.5898L125.206 16.4492C126.651 15.9492 128.151 15.6992 129.706 15.6992ZM132.155 24.5117V22.8594H131.874C130.296 22.8594 129.12 22.9531 128.347 23.1406C127.581 23.3281 127.198 23.6445 127.198 24.0898C127.198 24.3711 127.433 24.6367 127.901 24.8867C128.37 25.1367 128.944 25.2617 129.624 25.2617C130.585 25.2617 131.429 25.0117 132.155 24.5117ZM141.542 16.543C142.761 15.9805 144.062 15.6992 145.444 15.6992C146.327 15.6992 147.132 15.8672 147.858 16.2031L148.269 16.3906L147.354 18.793L146.897 18.6172C146.351 18.4062 145.757 18.3008 145.116 18.3008C144.093 18.3008 143.108 18.4844 142.163 18.8516V27.5H139.28V15.9219H141.202L141.542 16.543ZM158.101 27.2891C156.952 27.5859 155.991 27.7344 155.218 27.7344C154.476 27.7344 153.835 27.6602 153.296 27.5117C152.765 27.3633 152.347 27.1758 152.042 26.9492C151.737 26.7148 151.495 26.418 151.315 26.0586C151.144 25.6914 151.03 25.3359 150.976 24.9922C150.921 24.6484 150.894 24.2461 150.894 23.7852V18.3945H149.101V15.9219H150.894V12.6055H153.776V15.9219H158.03V18.3945H153.776V23.5859C153.776 23.7812 153.808 23.9688 153.87 24.1484C153.94 24.3281 154.05 24.5078 154.198 24.6875C154.347 24.8672 154.569 25.0117 154.866 25.1211C155.163 25.2227 155.515 25.2734 155.921 25.2734C156.132 25.2734 156.702 25.1953 157.632 25.0391L158.089 24.957L158.546 27.1719L158.101 27.2891ZM170.019 15.9219H172.901V27.5H170.757L170.417 26.7148C168.847 27.3945 167.335 27.7344 165.882 27.7344C165.124 27.7344 164.468 27.6367 163.913 27.4414C163.358 27.2383 162.921 26.9844 162.601 26.6797C162.288 26.3672 162.038 25.9805 161.851 25.5195C161.663 25.0586 161.542 24.6172 161.487 24.1953C161.433 23.7734 161.405 23.2969 161.405 22.7656V15.9219H164.288V22.7422C164.288 22.9453 164.296 23.125 164.312 23.2812C164.335 23.4375 164.394 23.6367 164.487 23.8789C164.581 24.1133 164.714 24.3086 164.886 24.4648C165.058 24.6211 165.315 24.7578 165.659 24.875C166.003 24.9922 166.409 25.0508 166.878 25.0508C167.815 25.0508 168.862 24.8359 170.019 24.4062V15.9219ZM183.214 15.6992C183.8 15.6992 184.366 15.7578 184.913 15.875C185.46 15.9922 185.999 16.1953 186.53 16.4844C187.062 16.7656 187.522 17.125 187.913 17.5625C188.304 17.9922 188.62 18.5547 188.862 19.25C189.104 19.9375 189.226 20.7188 189.226 21.5938C189.226 23.5078 188.647 25.0117 187.491 26.1055C186.335 27.1914 184.776 27.7344 182.815 27.7344C181.901 27.7344 181.007 27.6016 180.132 27.3359V33.7227H177.132V15.9219H179.265L179.534 16.4727C180.729 15.957 181.956 15.6992 183.214 15.6992ZM182.452 18.2539C181.679 18.2539 180.905 18.3906 180.132 18.6641V24.9102C180.944 25.1445 181.729 25.2617 182.487 25.2617C182.839 25.2617 183.179 25.2344 183.507 25.1797C183.835 25.125 184.179 25.0234 184.538 24.875C184.897 24.7188 185.21 24.5195 185.476 24.2773C185.741 24.0352 185.96 23.7109 186.132 23.3047C186.304 22.8906 186.39 22.418 186.39 21.8867C186.39 21.3008 186.3 20.7852 186.12 20.3398C185.948 19.8867 185.729 19.5352 185.464 19.2852C185.198 19.0273 184.882 18.8164 184.515 18.6523C184.147 18.4883 183.8 18.3828 183.472 18.3359C183.144 18.2812 182.804 18.2539 182.452 18.2539ZM212.569 10.8477H215.522V27.5H212.569V20.2695H203.663V27.5H200.71V10.8477H203.663V17.5508H212.569V10.8477ZM219.917 10.8477H223.151V14.0234H219.917V10.8477ZM220.093 15.9219H222.976V27.5H220.093V15.9219ZM238.28 15.9219L233.722 27.5H230.616L225.847 15.9219H229.175L232.245 24.4531L235.257 15.9219H238.28ZM246.882 15.6992C247.554 15.6992 248.155 15.7734 248.687 15.9219C249.226 16.0625 249.667 16.2461 250.011 16.4727C250.362 16.6914 250.663 16.9805 250.913 17.3398C251.171 17.6914 251.366 18.0312 251.499 18.3594C251.632 18.6797 251.733 19.0664 251.804 19.5195C251.882 19.9727 251.929 20.3555 251.944 20.668C251.96 20.9805 251.968 21.3516 251.968 21.7812V23.0938H243.261C243.425 23.6719 243.89 24.1758 244.655 24.6055C245.421 25.0273 246.429 25.2383 247.679 25.2383C248.562 25.2383 249.46 25.1055 250.374 24.8398L250.854 24.6992L251.429 26.9258L251.007 27.0664C249.702 27.5117 248.312 27.7344 246.835 27.7344C245.804 27.7344 244.89 27.6211 244.093 27.3945C243.296 27.168 242.655 26.875 242.171 26.5156C241.694 26.1562 241.3 25.7227 240.987 25.2148C240.683 24.707 240.472 24.1992 240.354 23.6914C240.237 23.1836 240.179 22.6406 240.179 22.0625C240.179 21.2031 240.3 20.418 240.542 19.707C240.792 18.9883 241.128 18.3867 241.55 17.9023C241.979 17.4102 242.479 16.9961 243.05 16.6602C243.628 16.3242 244.237 16.082 244.878 15.9336C245.519 15.7773 246.187 15.6992 246.882 15.6992ZM246.401 18.3242C245.503 18.3242 244.784 18.5508 244.245 19.0039C243.706 19.4492 243.386 20.0078 243.284 20.6797H249.132C249.069 19.8359 248.804 19.2344 248.335 18.875C247.866 18.5078 247.222 18.3242 246.401 18.3242Z" fill="#333333"/>
</svg>
