<svg width="34" height="35" viewBox="0 0 34 35" fill="none" xmlns="http://www.w3.org/2000/svg">
<path d="M12.8613 23.43L16.9996 20.92L21.1379 23.43L20.0379 18.7216L23.6979 15.58L18.8879 15.1533L16.9996 10.7366L15.1113 15.1533L10.3013 15.58L13.9613 18.7216L12.8613 23.43ZM16.9996 34.025L12.1213 29.1666H5.33294V22.3783L0.474609 17.5L5.33294 12.6216V5.83331H12.1213L16.9996 0.974976L21.8779 5.83331H28.6663V12.6216L33.5246 17.5L28.6663 22.3783V29.1666H21.8779L16.9996 34.025ZM16.9996 31.6666L21.1663 27.5H26.9996V21.6666L31.1663 17.5L26.9996 13.3333V7.49998H21.1663L16.9996 3.33331L12.8329 7.49998H6.99961V13.3333L2.83294 17.5L6.99961 21.6666V27.5H12.8329L16.9996 31.6666Z" fill="#D4CFCF"/>
</svg>
