<svg width="14" height="13" viewBox="0 0 14 13" fill="none" xmlns="http://www.w3.org/2000/svg">
<path d="M7.72708 11.9605C7.67478 11.9082 7.63329 11.8462 7.60498 11.7779C7.57667 11.7096 7.5621 11.6364 7.5621 11.5625C7.5621 11.4886 7.57667 11.4154 7.60498 11.3471C7.63329 11.2788 7.67478 11.2168 7.72708 11.1645L11.8298 7.06251L0.812546 7.06251C0.663362 7.06251 0.520288 7.00324 0.414799 6.89776C0.309309 6.79227 0.250046 6.64919 0.250046 6.50001C0.250046 6.35082 0.309309 6.20775 0.414799 6.10226C0.520288 5.99677 0.663362 5.93751 0.812546 5.93751L11.8298 5.93751L7.72708 1.83548C7.62153 1.72993 7.56223 1.58677 7.56223 1.43751C7.56223 1.28824 7.62153 1.14509 7.72708 1.03954C7.83262 0.933991 7.97578 0.874695 8.12505 0.874695C8.27431 0.874695 8.41747 0.933991 8.52301 1.03954L13.5855 6.10204C13.6378 6.15428 13.6793 6.21632 13.7076 6.2846C13.7359 6.35289 13.7505 6.42609 13.7505 6.50001C13.7505 6.57393 13.7359 6.64713 13.7076 6.71541C13.6793 6.7837 13.6378 6.84574 13.5855 6.89798L8.52301 11.9605C8.47077 12.0128 8.40874 12.0543 8.34045 12.0826C8.27216 12.1109 8.19897 12.1255 8.12505 12.1255C8.05112 12.1255 7.97793 12.1109 7.90964 12.0826C7.84136 12.0543 7.77932 12.0128 7.72708 11.9605Z" fill="#F5FE64"/>
</svg>
